<?xml version="1.0" encoding="utf-8"?>
<!-- Generator: Adobe Illustrator 23.0.0, SVG Export Plug-In . SVG Version: 6.00 Build 0)  -->
<svg version="1.1" id="Layer_1" xmlns="http://www.w3.org/2000/svg" xmlns:xlink="http://www.w3.org/1999/xlink" x="0px" y="0px"
	 viewBox="0 0 525 218" style="enable-background:new 0 0 525 218;" xml:space="preserve">
<style type="text/css">
	.st0{fill:#FFFFFF;}
</style>
<g>
	<path class="st0" d="M525,6c-13.1-0.3-21.4,6.6-25.7,18.3c-8.7,23.9-17,47.9-25.3,71.9c-13.6,39.2-27.1,78.5-40.7,117.8
		c-0.8,2.2-1.1,4.3-4.4,4.4c-3.5,0.1-4-2.1-4.9-4.5c-15.2-42.7-30.5-85.4-45.7-128.1c-0.3-0.7-0.6-1.4-1.4-3.5
		c-3.3,9.3-6.2,17.5-9.1,25.7c-12.5,35.2-24.9,70.5-37.6,105.7c-0.6,1.8-2.5,3.9-4.2,4.4c-3.5,1.1-3.7-2.3-4.5-4.5
		c-22.8-63.3-45.5-126.7-68.3-190c-4.6-12.7-7.9-14.9-25.2-18c0-1.8,0-3.7,0-5.6c26,0,52,0,78,0c0.1,1.9,0.2,3.8,0.3,5.6
		c-3.4,0.4-6.3,0.7-9,1.2c-8.9,1.7-13.1,7.8-11.2,16.7c0.9,4,2,8.1,3.4,12c12.8,36.9,25.7,73.7,38.6,110.6c2,5.6,4,11.3,6.3,17.6
		c0.8-1.7,1.1-2.4,1.4-3.2c10.1-29,20-58.1,30.4-87c2.7-7.6,3.5-14.3,0-21.8c-5-10.8-8.7-22.2-13.7-33c-2.9-6.3-8.6-10-15.4-11.6
		c-2.5-0.6-5.2-0.8-8.1-1.3c0-2,0-3.8,0-5.6c27.7,0,55.3,0,83,0c-0.2,1.9-0.3,3.8-0.5,5.8c-3.4,0.2-6.4,0.2-9.4,0.7
		c-10.4,1.7-14.5,7.6-12.6,18c0.8,4.2,1.6,8.5,3,12.6c14.3,41,28.6,81.9,43,122.8c0.3,0.9,1,1.7,1.7,3c0.5-1.1,0.7-1.6,0.9-2
		c13.7-39.6,27.4-79.2,41-118.8c2.2-6.4,3.9-13.1,5-19.8c1.3-7.9-2.2-12.7-10.1-14.6c-4.1-1-8.4-1.4-13.1-2.2c0-1.9,0-3.7,0-5.5
		c21.3,0,42.7,0,64,0C525,2,525,4,525,6z"/>
	<path class="st0" d="M215,0c-0.2,1.8-0.3,3.6-0.5,5.6c-4.7,0.4-9.4,0.6-13.9,1.3c-9.3,1.4-14.3,6.4-15.5,15.6
		c-0.6,4.6-1,9.3-1,13.9c-0.1,46.8-0.1,93.7,0,140.5c0,4.8,0.4,9.7,1,14.4c1.1,9,6.8,14.7,15.9,15.9c4.4,0.6,8.9,0.7,13.5,1.1
		c0,1.6,0,3,0,4.8c-1.3,0.2-2.6,0.5-3.9,0.5c-35.7-0.2-71.3,0.4-107-1c-28.1-1.1-54.1-9.4-74.5-30.3C12.8,165.4,4,145,1.1,121.8
		c-0.2-2-0.7-3.9-1.1-5.8c0-6.7,0-13.3,0-20c0.7-4.2,1.3-8.5,2.1-12.7C7.5,55.2,20.7,32,45.5,16.4C60.3,7.1,77.2,4.1,94.3,2.1
		c6.6-0.8,13.1-1.4,19.7-2.1C147.7,0,181.3,0,215,0z M154,107.6C154,107.6,154,107.6,154,107.6c0-28.7-0.1-57.3,0.1-86
		c0-3.7-1-5.4-4.8-5.9c-7.4-0.9-14.8-2.4-22.2-3.1C93.6,9.2,61.4,26.8,46.6,57c-12.8,26.1-13.8,53.7-7,81.4
		c7.6,31.1,26.9,52.3,58.2,61.3c16.9,4.8,34,2.9,51-0.4c4-0.8,5.4-2,5.4-6.3C153.9,164.5,154,136,154,107.6z"/>
</g>
</svg>
