<?xml version="1.0" encoding="utf-8"?>
<!-- Generator: Adobe Illustrator 23.0.0, SVG Export Plug-In . SVG Version: 6.00 Build 0)  -->
<svg version="1.1" id="Layer_1" xmlns="http://www.w3.org/2000/svg" xmlns:xlink="http://www.w3.org/1999/xlink" x="0px" y="0px"
	 viewBox="0 0 525 218" style="enable-background:new 0 0 525 218;" xml:space="preserve">
<style type="text/css">
	.st0{fill:#DA465A;}
</style>
<g>
	<path class="st0" d="M525,6c-13.12-0.32-21.41,6.64-25.66,18.29c-8.72,23.88-16.98,47.93-25.31,71.94
		c-13.61,39.24-27.13,78.51-40.68,117.78c-0.76,2.21-1.11,4.3-4.4,4.4c-3.52,0.11-4.01-2.12-4.85-4.48
		c-15.24-42.71-30.49-85.42-45.74-128.12c-0.26-0.73-0.57-1.44-1.38-3.46c-3.32,9.33-6.24,17.5-9.14,25.68
		c-12.49,35.24-24.94,70.5-37.56,105.7c-0.64,1.79-2.48,3.87-4.19,4.4c-3.46,1.06-3.74-2.28-4.55-4.54
		c-22.77-63.34-45.49-126.69-68.32-190c-4.58-12.7-7.93-14.92-25.22-17.96c0-1.81,0-3.72,0-5.63c26,0,52,0,78,0
		c0.11,1.89,0.22,3.78,0.32,5.59c-3.43,0.44-6.25,0.65-9.01,1.18c-8.94,1.71-13.07,7.78-11.19,16.66c0.86,4.05,2.01,8.07,3.37,11.98
		c12.82,36.86,25.7,73.71,38.59,110.55c1.97,5.64,4.04,11.25,6.33,17.63c0.75-1.68,1.15-2.42,1.42-3.19
		c10.1-29.02,19.99-58.11,30.41-87.01c2.72-7.55,3.51-14.27,0.02-21.82c-5-10.81-8.73-22.2-13.72-33.02
		c-2.89-6.28-8.65-9.99-15.44-11.65c-2.54-0.62-5.18-0.82-8.08-1.25c0-2.04,0-3.84,0-5.64c27.67,0,55.33,0,83,0
		c-0.16,1.92-0.32,3.84-0.47,5.75c-3.41,0.23-6.43,0.2-9.36,0.68c-10.41,1.7-14.52,7.57-12.58,18c0.79,4.24,1.61,8.52,3.02,12.58
		c14.26,40.97,28.64,81.91,43.02,122.84c0.32,0.92,0.96,1.72,1.7,3.03c0.48-1.14,0.69-1.58,0.85-2.04
		c13.68-39.59,27.42-79.16,40.96-118.79c2.19-6.41,3.91-13.07,5.02-19.75c1.31-7.85-2.24-12.66-10.1-14.6
		c-4.14-1.02-8.43-1.45-13.07-2.21c0-1.89,0-3.69,0-5.5c21.33,0,42.67,0,64,0C525,2,525,4,525,6z"/>
	<path class="st0" d="M215,0c-0.17,1.79-0.34,3.59-0.53,5.58c-4.72,0.41-9.35,0.56-13.9,1.25c-9.29,1.41-14.26,6.41-15.51,15.59
		c-0.63,4.61-1.04,9.29-1.04,13.94c-0.07,46.83-0.07,93.65,0,140.48c0.01,4.82,0.4,9.66,1.01,14.44
		c1.15,9.01,6.84,14.67,15.94,15.89c4.41,0.6,8.88,0.74,13.54,1.1c0,1.61,0,3.04,0,4.83c-1.33,0.17-2.6,0.48-3.87,0.47
		c-35.66-0.22-71.34,0.35-106.96-0.98c-28.09-1.05-54.1-9.45-74.47-30.34c-16.39-16.81-25.25-37.25-28.13-60.41
		C0.84,119.88,0.37,117.95,0,116c0-6.67,0-13.33,0-20c0.69-4.23,1.28-8.47,2.09-12.67c5.43-28.16,18.64-51.36,43.4-66.91
		C60.35,7.09,77.2,4.06,94.29,2.1C100.85,1.34,107.43,0.7,114,0C147.67,0,181.33,0,215,0z M154.04,107.55c0.01,0,0.01,0,0.02,0
		c0-28.66-0.07-57.32,0.08-85.98c0.02-3.7-0.97-5.4-4.78-5.85c-7.42-0.86-14.76-2.42-22.19-3.15C93.57,9.24,61.42,26.8,46.6,57.05
		c-12.79,26.11-13.75,53.7-6.96,81.39c7.64,31.15,26.92,52.32,58.15,61.26c16.86,4.83,33.96,2.94,50.96-0.37
		c3.99-0.78,5.44-1.98,5.4-6.3C153.93,164.54,154.04,136.04,154.04,107.55z"/>
</g>
</svg>
